<?xml version="1.0" encoding="UTF-8"?>
<svg width="84px" height="33px" viewBox="0 0 84 33" version="1.1" xmlns="http://www.w3.org/2000/svg" xmlns:xlink="http://www.w3.org/1999/xlink">
    <!-- Generator: Sketch 52.4 (67378) - http://www.bohemiancoding.com/sketch -->
    <title>Group 3</title>
    <desc>Created with Sketch.</desc>
    <defs>
        <path d="M64.729,2.4046 C64.729,3.7316 65.805,4.8086 67.133,4.8086 C68.46,4.8086 69.537,3.7316 69.537,2.4046 C69.537,1.0766 68.46,-0.0004 67.133,-0.0004 C65.805,-0.0004 64.729,1.0766 64.729,2.4046 Z M74.567,2.3086 C74.171,2.3086 73.85,2.6286 73.85,3.0246 L73.85,20.5056 C73.85,22.3526 74.372,23.7666 75.415,24.7486 C76.458,25.7316 78.022,26.2236 80.108,26.2236 C81.238,26.2236 82.218,26.0386 83.049,25.6686 C83.301,25.5566 83.452,25.2926 83.452,25.0166 C83.452,25.0166 83.713,21.1656 82.373,21.4586 C81.955,21.5506 81.57,21.6566 81.187,21.6566 C80.564,21.6566 80.12,21.5066 79.856,21.2076 C79.592,20.9066 79.461,20.4456 79.461,19.8226 L79.461,12.1236 C79.461,11.7276 79.781,11.4076 80.177,11.4076 L82.736,11.4076 C83.131,11.4076 83.452,11.0856 83.452,10.6896 L83.452,8.0236 C83.452,7.6286 83.131,7.3076 82.736,7.3076 L80.177,7.3076 C79.781,7.3076 79.461,6.9866 79.461,6.5906 L79.461,3.0246 C79.461,2.6286 79.14,2.3086 78.745,2.3086 L74.567,2.3086 Z M25.045,7.8466 C23.427,8.5906 22.618,9.6926 22.618,11.1556 L22.618,31.2976 C22.618,31.6936 22.939,32.0136 23.334,32.0136 L27.151,32.0136 C27.547,32.0136 27.868,31.6936 27.868,31.2976 L27.868,20.5436 L27.868,12.4146 C27.868,11.5986 28.934,11.1916 31.069,11.1916 C32.556,11.1916 33.604,11.6286 34.215,12.5036 C34.827,13.3786 35.132,14.6796 35.132,16.4056 C35.132,18.3236 34.785,19.6906 34.089,20.5056 C33.395,21.3206 32.315,21.7286 30.853,21.7286 C30.576,21.7286 30.294,21.7106 30.01,21.6736 C29.619,21.6236 29.263,21.9026 29.215,22.2926 L29.21,22.3346 C28.969,24.2686 30.445,26.0386 32.394,26.0436 L32.435,26.0436 C34.929,26.0436 36.895,25.1806 38.333,23.4546 C39.772,21.7286 40.491,19.4386 40.491,16.5846 C40.491,13.0366 39.688,10.5026 38.082,8.9786 C36.475,7.4566 34.209,6.6956 31.284,6.6956 C28.743,6.7196 26.663,7.1036 25.045,7.8466 Z M8.806,6.9176 C3.829,7.4976 0,11.8376 0.258,17.0276 C0.505,21.9646 4.603,26.0186 9.543,26.2156 C15.076,26.4366 19.631,22.0156 19.631,16.5316 C19.631,11.5746 15.907,7.4986 11.105,6.9216 C10.739,6.8786 10.413,7.1776 10.455,7.5436 C10.713,9.7266 11.384,11.8476 12.469,13.7716 C13.171,15.0156 13.776,16.3186 13.776,17.1036 C13.776,18.0656 13.422,18.9446 12.836,19.6176 L12.453,20.0016 C11.779,20.5866 10.901,20.9406 9.939,20.9406 C8.977,20.9406 8.097,20.5866 7.424,20.0016 L7.041,19.6176 C6.456,18.9446 6.101,18.0656 6.101,17.1036 C6.101,16.3066 6.701,15.0066 7.402,13.7666 C8.488,11.8436 9.161,9.7246 9.419,7.5416 C9.458,7.2106 9.193,6.9146 8.868,6.9146 C8.847,6.9146 8.826,6.9156 8.806,6.9176 Z M55.31,11.6246 L55.31,18.1316 C55.31,19.2836 55.052,20.1396 54.537,20.7036 C54.022,21.2666 53.201,21.5486 52.073,21.5486 C50.946,21.5486 50.126,21.2666 49.61,20.7036 C49.094,20.1396 48.837,19.2836 48.837,18.1316 L48.837,8.0236 C48.837,7.6286 48.516,7.3076 48.12,7.3076 C45.557,7.3076 43.479,9.3856 43.479,11.9486 L43.479,18.5626 C43.479,21.0566 44.24,22.9276 45.762,24.1736 C47.284,25.4216 49.377,26.0436 52.037,26.0436 C54.675,26.0436 56.718,25.4266 58.17,24.1916 C59.62,22.9566 60.345,21.0816 60.345,18.5626 L60.345,8.0236 C60.345,7.6286 60.025,7.3076 59.629,7.3076 C57.244,7.3076 55.31,9.2406 55.31,11.6246 Z M64.436,12.2016 L64.436,24.7876 C64.436,25.1836 64.758,25.5046 65.153,25.5046 L69.113,25.5046 C69.509,25.5046 69.83,25.1826 69.829,24.7856 L69.796,8.2746 C69.795,7.8796 69.475,7.5586 69.079,7.5586 C66.515,7.5586 64.436,9.6376 64.436,12.2016 Z" id="path-1"></path>
        <linearGradient x1="50.0006559%" y1="100.000012%" x2="50.0006559%" y2="0.00135347036%" id="linearGradient-3">
            <stop stop-color="#2E3690" offset="0%"></stop>
            <stop stop-color="#2BABE2" offset="100%"></stop>
        </linearGradient>
    </defs>
    <g id="Page-1" stroke="none" stroke-width="1" fill="none" fill-rule="evenodd">
        <g id="Group-3">
            <mask id="mask-2" fill="white">
                <use xlink:href="#path-1"></use>
            </mask>
            <g id="Clip-2"></g>
            <path d="M64.729,2.4046 C64.729,3.7316 65.805,4.8086 67.133,4.8086 C68.46,4.8086 69.537,3.7316 69.537,2.4046 C69.537,1.0766 68.46,-0.0004 67.133,-0.0004 C65.805,-0.0004 64.729,1.0766 64.729,2.4046 Z M74.567,2.3086 C74.171,2.3086 73.85,2.6286 73.85,3.0246 L73.85,20.5056 C73.85,22.3526 74.372,23.7666 75.415,24.7486 C76.458,25.7316 78.022,26.2236 80.108,26.2236 C81.238,26.2236 82.218,26.0386 83.049,25.6686 C83.301,25.5566 83.452,25.2926 83.452,25.0166 C83.452,25.0166 83.713,21.1656 82.373,21.4586 C81.955,21.5506 81.57,21.6566 81.187,21.6566 C80.564,21.6566 80.12,21.5066 79.856,21.2076 C79.592,20.9066 79.461,20.4456 79.461,19.8226 L79.461,12.1236 C79.461,11.7276 79.781,11.4076 80.177,11.4076 L82.736,11.4076 C83.131,11.4076 83.452,11.0856 83.452,10.6896 L83.452,8.0236 C83.452,7.6286 83.131,7.3076 82.736,7.3076 L80.177,7.3076 C79.781,7.3076 79.461,6.9866 79.461,6.5906 L79.461,3.0246 C79.461,2.6286 79.14,2.3086 78.745,2.3086 L74.567,2.3086 Z M25.045,7.8466 C23.427,8.5906 22.618,9.6926 22.618,11.1556 L22.618,31.2976 C22.618,31.6936 22.939,32.0136 23.334,32.0136 L27.151,32.0136 C27.547,32.0136 27.868,31.6936 27.868,31.2976 L27.868,20.5436 L27.868,12.4146 C27.868,11.5986 28.934,11.1916 31.069,11.1916 C32.556,11.1916 33.604,11.6286 34.215,12.5036 C34.827,13.3786 35.132,14.6796 35.132,16.4056 C35.132,18.3236 34.785,19.6906 34.089,20.5056 C33.395,21.3206 32.315,21.7286 30.853,21.7286 C30.576,21.7286 30.294,21.7106 30.01,21.6736 C29.619,21.6236 29.263,21.9026 29.215,22.2926 L29.21,22.3346 C28.969,24.2686 30.445,26.0386 32.394,26.0436 L32.435,26.0436 C34.929,26.0436 36.895,25.1806 38.333,23.4546 C39.772,21.7286 40.491,19.4386 40.491,16.5846 C40.491,13.0366 39.688,10.5026 38.082,8.9786 C36.475,7.4566 34.209,6.6956 31.284,6.6956 C28.743,6.7196 26.663,7.1036 25.045,7.8466 Z M8.806,6.9176 C3.829,7.4976 0,11.8376 0.258,17.0276 C0.505,21.9646 4.603,26.0186 9.543,26.2156 C15.076,26.4366 19.631,22.0156 19.631,16.5316 C19.631,11.5746 15.907,7.4986 11.105,6.9216 C10.739,6.8786 10.413,7.1776 10.455,7.5436 C10.713,9.7266 11.384,11.8476 12.469,13.7716 C13.171,15.0156 13.776,16.3186 13.776,17.1036 C13.776,18.0656 13.422,18.9446 12.836,19.6176 L12.453,20.0016 C11.779,20.5866 10.901,20.9406 9.939,20.9406 C8.977,20.9406 8.097,20.5866 7.424,20.0016 L7.041,19.6176 C6.456,18.9446 6.101,18.0656 6.101,17.1036 C6.101,16.3066 6.701,15.0066 7.402,13.7666 C8.488,11.8436 9.161,9.7246 9.419,7.5416 C9.458,7.2106 9.193,6.9146 8.868,6.9146 C8.847,6.9146 8.826,6.9156 8.806,6.9176 Z M55.31,11.6246 L55.31,18.1316 C55.31,19.2836 55.052,20.1396 54.537,20.7036 C54.022,21.2666 53.201,21.5486 52.073,21.5486 C50.946,21.5486 50.126,21.2666 49.61,20.7036 C49.094,20.1396 48.837,19.2836 48.837,18.1316 L48.837,8.0236 C48.837,7.6286 48.516,7.3076 48.12,7.3076 C45.557,7.3076 43.479,9.3856 43.479,11.9486 L43.479,18.5626 C43.479,21.0566 44.24,22.9276 45.762,24.1736 C47.284,25.4216 49.377,26.0436 52.037,26.0436 C54.675,26.0436 56.718,25.4266 58.17,24.1916 C59.62,22.9566 60.345,21.0816 60.345,18.5626 L60.345,8.0236 C60.345,7.6286 60.025,7.3076 59.629,7.3076 C57.244,7.3076 55.31,9.2406 55.31,11.6246 Z M64.436,12.2016 L64.436,24.7876 C64.436,25.1836 64.758,25.5046 65.153,25.5046 L69.113,25.5046 C69.509,25.5046 69.83,25.1826 69.829,24.7856 L69.796,8.2746 C69.795,7.8796 69.475,7.5586 69.079,7.5586 C66.515,7.5586 64.436,9.6376 64.436,12.2016 Z" id="Fill-1" fill="url(#linearGradient-3)" mask="url(#mask-2)"></path>
        </g>
    </g>
</svg>