<?xml version="1.0" encoding="UTF-8"?>
<svg width="92px" height="36px" viewBox="0 0 92 36" version="1.1" xmlns="http://www.w3.org/2000/svg" xmlns:xlink="http://www.w3.org/1999/xlink">
    <!-- Generator: Sketch 52.4 (67378) - http://www.bohemiancoding.com/sketch -->
    <title>Fill 1</title>
    <desc>Created with Sketch.</desc>
    <g id="Page-1" stroke="none" stroke-width="1" fill="none" fill-rule="evenodd">
        <path d="M41.5005978,9.849 C43.2625978,11.52 44.1435978,14.3 44.1435978,18.192 C44.1435978,21.322 43.3545978,23.833 41.7765978,25.727 C40.1995978,27.62 38.0425978,28.567 35.3075978,28.567 C35.2925978,28.567 35.2775978,28.567 35.2625978,28.567 C33.1245978,28.561 31.5055978,26.62 31.7685978,24.499 L31.7745978,24.453 C31.8275978,24.024 32.2185978,23.719 32.6465978,23.774 C32.9585978,23.814 33.2675978,23.833 33.5715978,23.833 C35.1755978,23.833 36.3595978,23.386 37.1225978,22.492 C37.8845978,21.598 38.2665978,20.099 38.2665978,17.995 C38.2665978,16.102 37.9305978,14.675 37.2605978,13.715 C36.5895978,12.756 35.4395978,12.275 33.8085978,12.275 C31.4675978,12.275 30.2975978,12.722 30.2975978,13.616 L30.2975978,22.534 L30.2975978,34.329 C30.2975978,34.763 29.9455978,35.115 29.5115978,35.115 L25.3245978,35.115 C24.8905978,35.115 24.5385978,34.763 24.5385978,34.329 L24.5385978,12.236 C24.5385978,10.632 25.4265978,9.422 27.2015978,8.607 C28.9765978,7.792 31.2575978,7.371 34.0445978,7.344 C37.2535978,7.344 39.7385978,8.179 41.5005978,9.849 M11.9105978,7.592 C11.5085978,7.544 11.1505978,7.872 11.1985978,8.274 C11.4795978,10.669 12.2165978,12.995 13.4075978,15.105 C14.1775978,16.47 14.8405978,17.899 14.8405978,18.76 C14.8405978,19.816 14.4505978,20.78 13.8095978,21.518 L13.3885978,21.939 C12.6505978,22.581 11.6865978,22.97 10.6305978,22.97 C9.57559783,22.97 8.61159783,22.581 7.87259783,21.939 L7.45259783,21.518 C6.81059783,20.78 6.42159783,19.816 6.42159783,18.76 C6.42159783,17.886 7.08059783,16.46 7.84859783,15.1 C9.03959783,12.991 9.77759783,10.666 10.0605978,8.273 C10.1065978,7.886 9.77459783,7.543 9.38859783,7.588 C3.92859783,8.224 -0.270402172,12.984 0.0135978282,18.677 C0.283597828,24.093 4.77859783,28.54 10.1965978,28.756 C16.2655978,28.997 21.2615978,24.149 21.2615978,18.133 C21.2615978,12.696 17.1765978,8.225 11.9105978,7.592 M75.5015978,8.291 C72.6895978,8.291 70.4085978,10.571 70.4085978,13.384 L70.4085978,27.189 C70.4085978,27.623 70.7605978,27.975 71.1945978,27.975 L75.5385978,27.975 C75.9725978,27.975 76.3255978,27.622 76.3245978,27.188 L76.2875978,9.076 C76.2865978,8.642 75.9355978,8.291 75.5015978,8.291 M65.1345978,8.015 C62.5195978,8.015 60.3985978,10.136 60.3985978,12.751 L60.3985978,19.888 C60.3985978,21.151 60.1155978,22.091 59.5505978,22.709 C58.9845978,23.327 58.0845978,23.636 56.8485978,23.636 C55.6115978,23.636 54.7115978,23.327 54.1465978,22.709 C53.5805978,22.091 53.2985978,21.151 53.2985978,19.888 L53.2985978,8.801 C53.2985978,8.367 52.9465978,8.015 52.5125978,8.015 L52.5115978,8.015 C49.7005978,8.015 47.4205978,10.295 47.4205978,13.106 L47.4205978,20.362 C47.4205978,23.097 48.2545978,25.149 49.9255978,26.516 C51.5945978,27.884 53.8895978,28.567 56.8085978,28.567 C59.7015978,28.567 61.9425978,27.89 63.5345978,26.535 C65.1255978,25.181 65.9205978,23.123 65.9205978,20.362 L65.9205978,8.801 C65.9205978,8.367 65.5695978,8.015 65.1345978,8.015 M90.0835978,23.538 C89.6245978,23.638 89.2025978,23.755 88.7815978,23.755 C88.0975978,23.755 87.6115978,23.59 87.3225978,23.261 C87.0325978,22.932 86.8885978,22.427 86.8885978,21.743 L86.8885978,13.298 C86.8885978,12.864 87.2405978,12.512 87.6745978,12.512 L90.4815978,12.512 C90.9155978,12.512 91.2675978,12.16 91.2675978,11.726 L91.2675978,8.801 C91.2675978,8.367 90.9155978,8.015 90.4815978,8.015 L87.6745978,8.015 C87.2405978,8.015 86.8885978,7.663 86.8885978,7.229 L86.8885978,3.318 C86.8885978,2.883 86.5365978,2.532 86.1025978,2.532 L81.5205978,2.532 C81.0865978,2.532 80.7345978,2.883 80.7345978,3.318 L80.7345978,22.492 C80.7345978,24.517 81.3065978,26.069 82.4505978,27.147 C83.5945978,28.225 85.3105978,28.764 87.5985978,28.764 C88.8375978,28.764 89.9135978,28.561 90.8245978,28.156 C91.1015978,28.033 91.2675978,27.743 91.2675978,27.439 C91.2675978,27.439 91.5525978,23.216 90.0835978,23.538 M73.3665978,0 C71.9095978,0 70.7295978,1.181 70.7295978,2.637 C70.7295978,4.094 71.9095978,5.274 73.3665978,5.274 C74.8225978,5.274 76.0035978,4.094 76.0035978,2.637 C76.0035978,1.181 74.8225978,0 73.3665978,0" id="Fill-1" fill="#FEFEFE"></path>
    </g>
</svg>